# xmcd
#
# Track frame offsets:
#	150
#	18523
#	33458
#	47678
#	69010
#	79793
#	97495
#	110203
#	120058
#	129818
#	139478
#	144070
#	149035
#	153555
#	160305
#	171018
#	187505
#	200123
#	211650
#	223623
#	233985
#	243383
#	257433
#	275865
#	283475
#	301288
#	309795
#
# Disc length: 4254 seconds
#
# Revision: 0
# Processed by: cddbd v1.4b42PL1 Copyright (c) Steve Scherf et al.
# Submitted via: EasyCDDAExtractor 4.5.0.1
#
DISCID=8a109c1b
DTITLE=Antonio Vivaldi - Kamer Orkest van Toulouse (Louis Auriacombe)
DYEAR=1970
DGENRE=Klassiek
TTITLE0=Concert voor Fluit en strijkers in G major: 1 Allegro
TTITLE1=Concert voor Fluit en strijkers in G major: 2 Largo
TTITLE2=Concert voor Fluit en strijkers in G major: 3 Final - Allegro molto
TTITLE3=Concert voor 2 Mandolinen en Strijkers in G major: 1 Allegro
TTITLE4=Concert voor 2 Mandolinen en Strijkers in G major: 2 Andante
TTITLE5=Concert voor 2 Mandolinen en Strijkers in G major: 3 Final - Allegro
TTITLE6=Concert voor Fluit en Strijkers in F major "II Tempesta di mare": 1 Al
TTITLE6=legro
TTITLE7=Concert voor Fluit en Strijkers in F major "II Tempesta di mare": 2 La
TTITLE7=rgo
TTITLE8=Concert voor Fluit en Strijkers in F major "II Tempesta di mare": 3 Pr
TTITLE8=esto
TTITLE9=Concert voor Fluit en Strijkers in G minor "La Notte" 1 Largo
TTITLE10=Concert voor Fluit en Strijkers in G minor "La Notte" 2 Fantasmi (Pre
TTITLE10=sto)
TTITLE11=Concert voor Fluit en Strijkers in G minor "La Notte" 3 Largo
TTITLE12=Concert voor Fluit en Strijkers in G minor "La Notte" 4 Presto
TTITLE13=Concert voor Fluit en Strijkers in G minor "La Notte" 5 Largo "II son
TTITLE13=no"
TTITLE14=Concert voor Fluit en Strijkers in G minor "La Notte" 6 Allegro
TTITLE15=Concert voor Fluit en Strijkers in D major "II Cardellino" 1 Allegro
TTITLE16=Concert voor Fluit en Strijkers in D major "II Cardellino" 2 Cantabil
TTITLE16=e
TTITLE17=Concert voor Fluit en Strijkers in D major "II Cardellino" 3 Allegro
TTITLE18=Concert voor Fluit en Strijkers in G major Opus 10 Nr 4: 1 Allegro
TTITLE19=Concert voor Fluit en Strijkers in G major Opus 10 Nr 4: 2 Largo
TTITLE20=Concert voor Fluit en Strijkers in G major Opus 10 Nr 4: 3 Allegro
TTITLE21=Concert voor Fluit en Strijkers in F major Opus 10 Nr 5: 1 Allegro ma
TTITLE21=non tanto
TTITLE22=Concert voor Fluit en Strijkers in F major Opus 10 Nr 5: 2 Largo e ca
TTITLE22=ntabile
TTITLE23=Concert voor Fluit en Strijkers in F major Opus 10 Nr 5: 3 Allegro
TTITLE24=Concert voor Fluit en Strijkers in G major Opus 10 Nr 6: 1 Allegro
TTITLE25=Concert voor Fluit en Strijkers in G major Opus 10 Nr 6: 2 Largo
TTITLE26=Concert voor Fluit en Strijkers in G major Opus 10 Nr 6: 3 Largo
EXTD=Concertos on this disc are:\n1-3 Flautino Concerto in C major\n4-6 Concer
EXTD=to in G major for 2 Mandolines\n\nThe rest are Flute Concertos:\n\n7-9 in
EXTD=F major "Il Tempesta di mare", Op. 10 No. 1\n10-15 in G major "La Notte"
EXTD=, Op. 10 No. 2\n16-18 in D major "Il Cardellino", Op. 10 No. 3\n19-21 in 
EXTD=G major Op. 10 No. 4\n22-24 in F major Op. 10. No. 5\n25-27 in G major Op
EXTD=10 No. 6
EXTT0=
EXTT1=
EXTT2=
EXTT3=
EXTT4=
EXTT5=
EXTT6=
EXTT7=
EXTT8=
EXTT9=
EXTT10=
EXTT11=
EXTT12=
EXTT13=
EXTT14=
EXTT15=
EXTT16=
EXTT17=
EXTT18=
EXTT19=
EXTT20=
EXTT21=
EXTT22=
EXTT23=
EXTT24=
EXTT25=
EXTT26=
PLAYORDER=
